<?xml version="1.0" encoding="UTF-8"?>
<svg id="Layer_1" data-name="Layer 1" xmlns="http://www.w3.org/2000/svg" viewBox="0 0 853.73 292.04">
  <defs>
    <style>
      .cls-1 {
        fill: #231f20;
      }

      .cls-2 {
        fill: #588157;
      }
    </style>
  </defs>
  <path class="cls-2" d="M494.58,169.93c2.5-9.38,1.84-24.16,1.36-33.96-.17-3.43-.66-16.08-1.59-18.48-.79-2.04-3.29-5.1-4.44-7.41-.89-1.78-1.63-4.3-2.51-6.07-.79-1.58-4.54-8.53-6.14-8.55-2.9-.04-2.01,4.04-2.82,6.1-.4,1.03-4.13,7.37-4.82,8.18-2.41,2.83-7.72,4.3-11.29,4.16-.37-1.34.79-2.06,1.1-3.17,1.75-6.25,1.84-11.55,9.12-14.44,2.26-.89,3.24-.51,5.32-.89.31-.06,2.73-.97,1.93-1.55l-7.56-.38-.72-1.72.83-.65c-1.63,0-2.88-1.25-4.44-1.48-2.61-.38-4.7,1.41-7.22.71-.14-.04-2.32-1.3-2.58-1.49-.27-.19-1.89-1.55-2.23-1.85-1.55-1.36-4.28-4.62-4.53-6.72-.28-2.35.96-5.82-.22-8.36,1.23-.39,1.09.51,1.58.74.99.47,3.29,1.11,3.93,1.59.6.46.45,1.23.81,1.54.67.55,3.15.72,4.04,1.06,3.04,1.15,6.93,5.82,7.41,8.93.16,1-.78,1.56.31,2.55.28.25,4.28,2.09,4.98,2.36,2.62,1.02,6.18,1.45,8.48,2.52,2.82,1.31,5.67,7.95,7.16,10.73.19.35.7.41.92.82.25.49,2.87,7.95,3.66,7.14,1.49-4.72.03-9.28-.18-13.96-.39-8.44,1.06-15.25-4.01-22.99-.7-1.07-2.22-2.21-2.76-3.37-.54-1.15-.54-2.58-1.06-3.85-1.9-4.71-6.23-8.19-11.13-9.48.37,2.32-.26,3.75-2.54,4.56-2.29.82-3.87-.43-5.85-.46-1.4-.01-5.29.82-6.52.5-.28-.07-.25-.7-.59-.76-1.92-.36-3.93-.63-5.88-.77,2.85-4.84,11.41-8.89,16.93-8.27,4.29.48,3.57,4.79,8.14,4.74-2.47-2.76-4.92-6.02-8.93-6.37-6.51-.57-8.22,1.59-13.73,2.81-6.4,1.42-10.24.93-16.52-.21-.3-.05-3.28-.55-2.46-1.41,1.84.02,2.13-1.72,3.06-2.47,5.15-4.2,12.23-4.29,18.58-4.18l3.73,4.25c4.06.3,8.18-.62,12.07.75-.81-1.9-2.03-3.62-2.85-5.52-1.47-3.39-.32-2.14-2.9-5.06-.83-.94-1.2-3.65-.94-4.82.21-.91,3.47-6.83,4.1-7.51,1.71-1.83,4.48-2.52,6.2-3.86,1.83-1.43,2.86-3.85,3.65-5.71.61-1.44,3.2-5.36.96-5.69-.43-1.93,2.9.56,3.3.97,1.3,1.36,1.97,3.59,2.29,5.39,1.44,7.93,1.05,14.77.49,22.93-.09,1.29-1.51,6.22-.67,7.04.14.13.79.04,1.13.29.69.5.47,1.43,2.26.96.71-.18-.02-2.91,2.17-4,2.18-1.09,6.58-.3,9.15-1.41l-6.37,7.69-3.54.93-1.73-2.04c-.96-.03-3.01.64-3.4,1.58-.66,1.59-1,8.21-.79,10.04.57,4.97,4.71,9.93,7.56,13.89-.07-2.87,1.77-5.72,2.67-8.46.47-1.42-.71-1.81,1.65-1.81l11.31-14.96c.63-3.91,1.31-2.69,3.41-4.34,1.71-1.34,2.89-4.61,4.24-5.93.46-.45,1.38-.48,1.63-.83.96-1.37-1.51-7.4-1.58-9.3-2.86.55-5.06.64-7.9-.03-3.06-.73-5.63-3.24-8.32-4.65-1.97-1.03-4.57-1.8-6.81-2.65-.74-.28-1.94-.06-2.57-.68,7.24-2.83,18.77-7.15,25.32-.92.8.76,2.31,3.42,2.53,4.45.45,2.11-1.27,2.91-1.31,3.44-.03.37,2.55,5.68,2.23,7.06,1.25-2.37,3.92-6.11,3.84-8.75-.02-.64-.8-4.62-1.02-4.94-.3-.44-2.25-1.02-2.99-2.11-.97-1.42-1.61-4.9-1.55-6.63.28-7.25,6.62-10.15,12.88-12.11l3.84-2.89-2.35,12.27c-1.35.77-1.2,2.47-1.98,3.68-1.39,2.15-5.54,3.79-6.02,6.34-.6,3.18,2.31,7.47-.37,11.04l5.97-.07v-.02c1.92-4.29,5.88-5.39,10.27-6.14,5.52-.94,8.87-.06,14.01,1.77.45.16.7-.21.57.64-3.59,3.02-3.94,7.71-9.2,9.18-2.56.71-9.21,1.55-11.04.22-2.26,1.43-3.65-3.62-4.93-4.17-1.69-.19-5.4-.57-6.66.62-1.14,1.08-1.77,5.04-3.07,6.66-1.2,1.49-3.54,3.1-5,4.81-4.73,5.53-11.32,15.76-15.23,22.12-.18.29-.65.33-.8.6-3.33,5.86-2.97,13.45-3.06,19.99l3.82-7.33c1.3-1.39,4.26-3.04,5.33-4.49.71-.96.6-2.26,1.07-2.78.75-.82,3.8-1.26,3.95-1.41.19-.19,0-1.78,1.37-2.93,2.92-2.46,7.03-.35,8.29-4.43-1.47-3.33-2.48-6.41-1.77-10.09.55-2.85,2.22-5.41,3.81-7.52,1.28-1.7,3.31-3.33,3.24-5.51l3.62,5.38.16,1.06c.96-.96,1.97-2.86,3.09-3.63.38-.26,4.86-1.88,5.07-1.72-1.01,2.45.29,5.32.11,7.87-.15,2.14-2.84,9.34-4.24,10.79-1.11,1.15-2.47,1.02-3.34,1.8-.63.56-1.09,2.15-1.74,2.93-.89,1.08-4.44,2.94-4.07,4.09,2.66,2.43,4.08-1.74,5.61-2.2,4.27-1.3,5.53,1.18,8.42,2.41,1.03.44,2.34.37,3.24.84,2.36,1.21,5.67,8.72,5.92,11.45-2.41-1.25-4.06-.26-6.37-.32-3.05-.09-10.86-3.39-12.59-5.79-.58-.81-1.12-1.59-1.68-2.38-.38-.53-.3-1.55-.74-1.82-.23-.14-3.32-.84-3.45-.73l.95,1.91,3.01,1.29c-2.66,1.96-5.14,4.3-8.8,3.12-1.29-.42-1.8-2.07-2.9-2.4-.45-.14-4.3-.44-4.55-.34-.36.15-5.37,4.57-5.92,5.15-2.17,2.27-4.59,6.76-5.72,9.71-1.13,2.95-1.43,5.39-1.65,8.4-.66,9.03-1.01,24,.33,32.82.19,1.29.98,1.37,1.18,2.32.26,1.28-.65,4.91-.63,6.56.1,6.96,1.04,13.99.2,21.02-.41,3.49-1.21,3.69-.76,7.36M483.56,33.7c-.72-1.44-.95-3.24-1.64-4.7l-1.74,3.06,4.29,3.38c.83-.77-.81-1.56-.9-1.75h0ZM488.11,48.37l-.07-5.87c0-.25-.52-2.57-.65-3.04-.09-.33-.55-1.64-1.05-1.59,1.28,2.11-1.07,4.81-1,6.29.02.33,1.52,3.25,1.84,3.71.27.4-.04.72.93.51h0ZM484.96,47.05c-.36-.62-.52-1.45-.83-1.84-1.93-2.43-5.54-4.31-7.94-6.37-.65-.09-2.19,1.91-2.2,2.58-.05,4.62,5.03,8.77,6.09,12.99,1.22.38,4.73,5.73,5.12,5.76.32.03,1.22-.37,1.39-.76.14-.31.79-6.28.77-6.77-.07-1.71-1.63-4.28-2.39-5.6h-.01ZM529.34,66.79c1-.98,2.99-3.42.72-3.91-2.16,3.01-6.47,3.56-7.95,6.97,2.63.47,5.43-1.29,7.23-3.06h0Z"/>
  <path d="M162.13,194.97c-1.1,0-3.41.08-5.46.15-1.63.06-3.1.11-3.66.11-.85,0-1.77-.03-3.02-.06-2.72-.08-6.83-.19-15.03-.19-1.16,0-2.91,0-2.91,1.43,0,1.2,1.45,1.48,2.15,1.62l.34.07c2.68.4,2.87,2.45,2.87,5.78v29.41c0,4.24-1.66,4.85-3,5.34-.74.27-1.65.61-1.65,1.67,0,.5.41,1.24,1.31,1.24.44,0,1.04-.04,1.79-.1,1.2-.09,2.83-.22,4.85-.22,4.61,0,5.98.19,6.56.27.21.03.34.04.46.04,1.71,0,2.07-.85,2.07-1.56,0-1.02-1.04-1.25-2.05-1.48-1.76-.39-3.94-.87-3.94-4.39v-12.88c0-.16,0-.32-.02-.48-.01-.27-.03-.72.05-.81.03-.03.15-.08.44-.08h9.44c2.78,0,3.1,1.66,3.41,3.27.2,1.04.45,2.34,1.75,2.34.66,0,1.37-.39,1.37-1.5,0-.88-.03-1.74-.07-2.59-.03-.82-.06-1.63-.06-2.45,0-.99.03-2.01.06-3.06.03-1.11.07-2.24.07-3.38s-.56-1.88-1.37-1.88c-1,0-1.28.97-1.5,1.75-.43,1.49-.96,3.35-4.94,3.35h-6.89c-.8,0-1.56,0-1.69-.07-.07-.12-.06-.66-.06-1.13v-12.42c0-1.45,0-2.41.31-2.72.38-.38,1.77-.38,4.05-.37h2.01c2.59-.04,8.01-.13,9.26,1.5.34.49.39,1.35.43,2.12.07,1.14.16,2.7,1.65,2.7,1.17,0,1.95-1.4,1.95-8.26,0-1.71-.71-2.07-1.31-2.07h-.02Z"/>
  <path d="M206.21,194.39c-13.73,0-24.08,10.13-24.08,23.57,0,14.33,9.24,23.95,23,23.95,14.82,0,24.78-9.75,24.78-24.27,0-13.26-10.19-23.25-23.7-23.25ZM207.81,238.66c-9.54,0-19.68-7.9-19.68-22.55,0-8.8,5.06-18.28,16.17-18.28,12.28,0,19.61,11.3,19.61,22.23s-6.62,18.59-16.1,18.59h0Z"/>
  <path d="M295.13,194.96c-.59,0-1.18.06-1.78.13-1.75.19-3.6.1-5.42,0-1.26-.06-2.51-.13-3.77-.13-.52,0-1.31.59-1.31,1.31,0,1.46,1.35,1.76,2.44,1.99,1.72.37,3.49.76,3.49,4.26v20.67c0,9.8-4.73,14.76-14.06,14.76s-14.57-5.31-14.57-14.19v-22.9c0-2.31,1.14-2.59,2.36-2.9.81-.2,1.91-.48,1.91-1.69,0-.31-.12-.58-.34-.8-.5-.49-1.37-.55-2.37-.51-.99,0-2,.06-3.02.13-1.85.11-3.74.13-5.52,0-.83-.07-1.65-.13-2.49-.13-.44,0-2.07.22-2.07,1.31,0,1.4,1.39,1.73,2.51,2,1.65.4,2.65.75,2.65,2.28v21.49c0,8.53,2.14,19.87,20.64,19.87,5.97,0,10.58-1.6,13.72-4.77,4.81-4.85,4.76-12.05,4.75-14.42v-20.13c0-3.36,1.27-3.98,2.3-4.48.65-.32,1.47-.71,1.47-1.77,0-.84-.89-1.38-1.5-1.38h-.02Z"/>
  <path d="M361.59,194.96c-.71,0-1.68.05-2.72.11-1.22.07-2.55.15-3.72.15-1.02,0-1.99-.07-2.95-.13-.96-.07-1.9-.13-2.85-.13-.81,0-1.37.54-1.37,1.31,0,1.23,1.2,1.53,2.35,1.81,2.11.53,4.73,1.18,4.73,6.22v25.97l-30.2-33.62c-.07-.08-.15-.19-.24-.31-.44-.59-1.04-1.39-1.93-1.39-.51,0-1.03.06-1.56.13-.96.13-1.88.12-2.79,0-.52-.07-1.05-.13-1.59-.13-.58,0-1.63.44-1.63,1.31,0,1.23,1.14,1.51,2.15,1.75,2.22.55,5.57,1.37,5.57,10.17v23.54c0,5.45-2.12,6.08-3.68,6.54-.86.26-1.94.57-1.94,1.82,0,.87.55,1.37,1.5,1.37.14,0,.57-.02,1.16-.06,1.24-.07,3.31-.2,4.84-.2,1.82,0,3.19.09,4.3.16.81.05,1.5.1,2.14.1s1.38-.39,1.38-1.5c0-1.18-1.21-1.38-2.18-1.53-1.69-.28-3.44-.56-3.44-3.7v-26.09c0-.21,0-.38.01-.52.11.12.26.29.44.52.08.1.14.18.15.19l27.43,30.88c1.32,1.44,2.14,2,2.92,2,1.25,0,1.25-1.58,1.25-3.41v-36.93c0-2.47,1.11-2.96,2.17-3.42.71-.3,1.59-.69,1.59-1.75,0-.73-.54-1.24-1.31-1.24h.02Z"/>
  <path d="M406.24,194.97c-2.93,0-5.44.07-7.86.14-3.06.08-5.89.18-8.76,0-.97-.07-1.95-.13-2.96-.13-.76,0-1.57.46-1.57,1.31,0,1.11,1.06,1.38,1.91,1.59,1.48.37,3.32.83,3.32,4.6v31.77c0,3.56-1.61,4.06-2.9,4.45-.72.22-1.63.5-1.63,1.48,0,.82.49,1.31,1.31,1.31.21,0,1.68-.06,3.24-.11,1.74-.07,3.6-.14,3.9-.14,1.62,0,3.23.06,4.85.13,1.63.06,3.27.12,4.9.12,16.55,0,25.29-8.81,25.29-25.48,0-12.57-11.92-21.02-23.06-21.02l.02-.02ZM406.24,238.4c-2.68,0-7.38-.71-9.33-2.66-.29-.43-.23-2.75-.21-3.52v-30.98c.01-2.64.01-3.35,5.65-3.35,12.69.07,20.89,8.54,20.89,21.59,0,16.46-10.65,18.92-17,18.92h0Z"/>
  <path d="M494.75,238.57c-1.21-.21-2.57-.44-3.49-1.85-1.04-1.58-1.72-3.43-2.39-5.22-.24-.66-.49-1.31-.74-1.94l-13.26-32.83c-.03-.08-.06-.19-.11-.32-.31-.99-.78-2.47-1.86-2.47s-1.29.53-3.16,4.62c-.56,1.23-1.28,2.81-2.23,4.82l-15.25,32.54c-.88,1.92-2.11,2.32-3.1,2.63-.72.23-1.61.51-1.61,1.53,0,.8.52,1.38,1.24,1.38.84,0,1.69-.06,2.56-.13,1.71-.13,3.45-.12,5.18,0,.91.07,1.82.13,2.73.13h.29c.1,0,.21.01.32.01.47,0,.96-.06,1.34-.42.29-.28.44-.69.44-1.22,0-1.19-1.16-1.4-2.01-1.55-1.3-.23-2.52-.45-2.52-2.66,0-.73.24-1.6.39-1.95l4.08-8.92c.43-.91,1.12-.96,2.39-.96h14.03c1.31,0,1.55.53,2.18,2l2.04,5.23c.15.39.33.85.52,1.33.6,1.49,1.41,3.53,1.41,4.49,0,.78-.57,1.06-1.78,1.47-.91.31-2.04.69-2.04,1.85,0,.6.36,1.31,2.07,1.31.88,0,1.76-.06,2.63-.13,2.14-.16,4.28-.1,6.42,0,1.32.06,2.64.13,3.95.13.39,0,1.56,0,1.56-1.25s-1.24-1.48-2.23-1.65h0ZM477.05,219.65h-12.63c-.14,0-.23,0-.3-.02.02-.04.04-.1.08-.17l7.1-15.27,6.14,15.1c.06.15.09.26.12.33-.1.02-.26.03-.51.03Z"/>
  <path d="M549.8,197.45c-.08-1.86-.72-2.49-2.52-2.49-.32,0-.93.01-1.85.04-2.66.07-8.18.22-16.84.22-4.62,0-8.18-.08-11.33-.15-2.44-.06-4.61-.1-6.79-.1-1.64,0-1.75,1.96-1.8,2.8l-.72,6.54c0,.68.54,1.44,1.31,1.44,1.22,0,1.5-1.09,1.65-1.68l.21-.71c1-3.08,1.15-3.55,4.45-3.55h10.25c.09.18.18.65.12,1.96v33.48c0,1.73-1.22,2.3-2.92,2.9-1.05.37-2.13.75-2.13,1.82,0,1,.48,1.5,1.44,1.5.08,0,.2,0,.39-.03.7-.06,2.57-.23,8.34-.23.95,0,1.89.07,2.78.14.84.06,1.65.12,2.39.12.46,0,.75-.19.9-.35.36-.37.35-.85.34-1.09,0-1.29-1.21-1.56-2.18-1.77-1.47-.33-2.99-.66-2.99-3.46v-33.45c-.01-.66-.02-1.35.03-1.47.14-.07.72-.07,1.28-.06h9.69c3.45,0,3.58,1.31,3.72,2.7.08.85.21,2.14,1.71,2.14.55,0,.87-.23,1.04-.42.45-.5.37-1.24.32-1.7l-.32-5.09h.03Z"/>
  <path d="M585.13,238.25c-1.92-.48-3.18-.94-3.18-2.88v-34.25c0-2.54,1.39-2.92,2.73-3.28.83-.22,1.86-.5,1.86-1.57,0-1.31-1.18-1.31-1.88-1.31-1,0-2.01.06-3.01.13-2.14.13-4.28.12-6.39,0-1.18-.06-2.35-.13-3.54-.13s-1.31.78-1.31,1.37c0,1.02,1.05,1.29,1.98,1.52,1.48.37,3.15.79,3.19,3.27v32.66c0,3.58-1.63,4.01-3.07,4.39-.85.22-1.91.5-1.91,1.67,0,1.44,1.07,1.62,2.01,1.62.3,0,.66-.03,1.13-.06.95-.08,2.38-.19,4.99-.19,1.57,0,3.11.08,4.47.16,1,.06,1.85.1,2.48.1s1.95,0,1.95-1.31-1.33-1.62-2.5-1.91h0Z"/>
  <path d="M632.5,194.39c-13.73,0-24.08,10.13-24.08,23.57,0,14.33,9.24,23.95,22.99,23.95,14.82,0,24.78-9.75,24.78-24.27,0-13.26-10.19-23.25-23.7-23.25h.01ZM634.1,238.66c-9.54,0-19.68-7.9-19.68-22.55,0-8.8,5.06-18.28,16.17-18.28,12.28,0,19.61,11.3,19.61,22.23s-6.62,18.59-16.1,18.59h0Z"/>
  <path d="M720.4,194.96c-.71,0-1.67.05-2.72.11-1.22.07-2.55.15-3.72.15-1.02,0-1.99-.07-2.95-.13-.95-.07-1.9-.13-2.85-.13-.81,0-1.37.54-1.37,1.31,0,1.23,1.2,1.53,2.35,1.81,2.11.53,4.73,1.18,4.73,6.22v25.97l-30.2-33.62c-.07-.08-.15-.19-.24-.31-.44-.59-1.04-1.39-1.93-1.39-.51,0-1.03.06-1.56.13-.96.12-1.88.12-2.79,0-.52-.07-1.05-.13-1.59-.13-.58,0-1.63.44-1.63,1.31,0,1.23,1.14,1.51,2.14,1.75,2.22.55,5.58,1.37,5.58,10.17v23.54c0,5.45-2.13,6.08-3.68,6.54-.86.26-1.94.57-1.94,1.82,0,.87.55,1.37,1.5,1.37.14,0,.57-.02,1.15-.06,1.24-.07,3.31-.2,4.84-.2,1.82,0,3.2.09,4.31.16.81.05,1.49.09,2.14.09s1.38-.39,1.38-1.5c0-1.18-1.2-1.38-2.17-1.53-1.69-.28-3.44-.56-3.44-3.7v-26.09c0-.21,0-.38.01-.51.12.12.26.29.44.52.08.1.15.18.15.19l27.43,30.88c1.31,1.44,2.13,2,2.92,2,1.25,0,1.25-1.58,1.25-3.41v-36.93c0-2.47,1.11-2.96,2.18-3.42.71-.3,1.58-.69,1.58-1.75,0-.73-.54-1.24-1.31-1.24h0Z"/>
  <path d="M34.68,131.69c0-.62,8.29-3.53,8.29-12.53,0-6.53-3.88-15-19.41-15-7.06,0-10.59.35-14.12.35s-5.29-.35-7.06-.35C1.32,104.16,0,104.07,0,105.4c0,1.76,7.85.88,7.85,7.59v43.41c0,6.88-3.09,7.32-4.06,7.59-1.59.53-2.65.8-2.65,1.68,0,.79,1.77.97,2.21.97,4.06,0,8.21-.35,12.26-.35,3,0,8.29.35,11.47.35,17.21,0,21.44-12.88,21.44-18.7,0-14.65-13.85-14.91-13.85-16.23v-.02ZM19.95,107.07c8.91,0,16.94,5.38,16.94,14.91,0,4.15-.71,9.53-15.18,9.53-7.94,0-6.88-.44-6.88-3.27v-14.56c0-5.12-.44-6.62,5.12-6.62h0ZM26.92,164.24c-12.53,0-12.09-1.85-12.09-8.21v-19.76c0-.8-.44-2.03,6.35-2.03,20.29,0,20.65,11.29,20.65,16.94,0,5.29-3.18,13.06-14.91,13.06h0Z"/>
  <path d="M72.9,128.42c-11.12,0-19.68,9.26-19.68,20.12,0,11.91,8.29,18.7,19.76,18.7,10.85,0,19.06-8.3,19.06-19.15,0-16.41-12.44-19.67-19.15-19.67h.01ZM73.78,165.39c-10.32,0-14.38-11.29-14.38-19.94,0-7.5,3.53-15.09,12.18-15.09,10.5,0,14.29,9.97,14.29,19.06,0,10.94-4.68,15.97-12.09,15.97h0Z"/>
  <path d="M136.08,159.48v-14.56c0-6.71-2.56-16.5-14.38-16.5-8.56,0-12.97,7.59-12.79,6.53v-5.82c0-.88-.53-1.41-1.06-1.41-2.03,0-3.79,2.82-11.12,4.41-.44.09-.79.44-.79.97,0,1.85,6.53-.44,6.53,4.85v21.88c0,5.73-5.21,3.97-5.21,5.73,0,.88.44,1.06,1.59,1.06,1.06,0,2.82-.35,7.5-.35,5.12,0,6.88.35,8.38.35,1.32,0,1.94-.18,1.94-1.23,0-2.38-7.76.18-7.76-5.91v-20.29c-.09-1.41,3-6.88,10.41-6.88s10.32,6.62,10.32,11.03v16.5c0,5.73-3.79,3.97-3.79,5.73,0,.88.44,1.06,1.59,1.06s3-.35,6.35-.35c4.32,0,6.53.35,7.68.35.88,0,1.5-.18,1.5-1.23,0-2.38-6.88.18-6.88-5.91h-.01Z"/>
  <path d="M179.76,158.24c-1.94,0-4.85,4.59-12.44,4.59-5.38,0-14.21-4.32-14.21-18.88h23.47c2.03,0,3,.09,3-1.5,0-3.53-4.76-14.03-15.62-14.03s-17.29,9.44-17.29,20.73c0,5.82,4.59,18.09,17.82,18.09,7.94,0,15.62-6.35,15.62-8.38,0-.27,0-.62-.35-.62ZM162.46,130.45c4.85,0,9.79,4.41,9.79,9.35,0,1.32-.53,1.76-1.77,1.76h-17.38c0-4.85,3.88-11.12,9.35-11.12h0Z"/>
  <path d="M273.29,158.51l-1.24-43.76c-.35-10.5,6.71-6.71,6.71-9.53,0-.53-.35-1.06-.88-1.06-1.41,0-2.21.35-4.24.35-.44,0-3.26-.35-4.15-.35-1.06-.09-1.76,2.03-2.29,3l-21,42.17c-1.41,2.91-2.29,4.76-2.74,4.76-.62,0-.97-.8-1.94-2.65l-21-44.82c-.44-.97-.62-2.47-1.85-2.47-1.59,0-3.18.35-4.76.35-1.68,0-3.26-.35-4.85-.35-.79,0-1.5.18-1.5.97,0,3,8.38-1.94,8.38,18.79,0,9.35-1.06,18.7-2.12,33.09-.62,9.18-6.27,5.56-6.27,8.56,0,.62.27,1.06.88,1.06,1.59,0,3.09-.35,7.68-.35,2.65,0,6.62.35,7.76.35,1.24,0,2.21-.09,2.21-.97,0-3.18-8.38.71-7.94-11.03l1.06-30.97c.09-.88.35-1.32.62-1.32.35,0,.79.26,1.06.97l18.79,39.35c.27.62.88,2.56,1.76,2.56s2.29-3.62,2.74-4.41l18.26-37.23c.88-1.85,1.68-2.65,2.29-2.65.53,0,.97,1.23.97,3.44l.88,34.23c.09,6.53-5.47,4.59-5.47,7.24,0,.35.18.79.97.79,2.21,0,5.03-.35,7.76-.35,3.53,0,6.62.35,8.29.35.97,0,2.12,0,2.12-.88,0-3.09-6.53.18-6.97-7.24h.02Z"/>
  <path d="M310.1,162.13c1.15,2.91,3.44,4.5,6.88,4.5,1.24,0,5.12-.35,5.12-2.21,0-.62-.71-.62-1.15-.62-.35,0-1.15.18-1.5.18-4.59,0-3.79-5.21-3.79-8.21v-18.26c0-7.5-8.47-9.09-13.94-9.09-9.79-.27-14.73,5.91-14.82,9.97,0,1.59,2.65,2.91,4.15,2.91,1.68,0,1.94-.71,1.94-1.68s-.53-2.29-.53-3.62c0-4.85,3.44-5.29,7.68-5.29,5.47,0,9.09,3.09,9.09,7.68v6.79c-20.65,3.44-22.15,9-22.15,13.68,0,6.26,3.79,8.38,9.53,8.38,4.94,0,9.79-1.94,13.5-5.12h0ZM292.8,157.71c0-7.77,10.76-9.18,16.41-10.41v10.24c0,4.68-6,7.15-9.18,7.15-4.68,0-7.24-1.94-7.24-6.97h0Z"/>
  <path d="M344.78,165.66c0-2.82-7.85,1.41-7.85-6.79v-19.32c0-1.15,2.12-5.21,5.74-5.21,3.18,0,4.15,2.03,5.82,2.03,1.06,0,3.18-2.65,3.18-3.97,0-1.68-3.97-3.97-5.82-3.97-3.71,0-6.88,4.76-8.74,7.32h-.18v-6.62c0-.88-.53-1.41-1.06-1.41-2.03,0-3.79,2.82-10.59,4.41-.44.09-1.15.44-1.15.97,0,1.85,6.35-.44,6.35,4.85v22.77c0,3.62-4.5,3.26-4.5,5.12,0,.53.27.79.97.79.62,0,2.21-.35,8.12-.35,4.94,0,7.06.35,8.29.35.97,0,1.41-.18,1.41-.97h0Z"/>
  <path d="M375.22,128.42c-3.71,0-6.88,4.76-8.74,7.32h-.18v-6.62c0-.88-.53-1.41-1.06-1.41-2.03,0-3.79,2.82-10.59,4.41-.44.09-1.15.44-1.15.97,0,1.85,6.35-.44,6.35,4.85v22.77c0,3.62-4.5,3.26-4.5,5.12,0,.53.27.79.97.79.62,0,2.21-.35,8.12-.35,4.94,0,7.06.35,8.29.35.97,0,1.41-.18,1.41-.97,0-2.82-7.85,1.41-7.85-6.79v-19.32c0-1.15,2.12-5.21,5.74-5.21,3.18,0,4.15,2.03,5.82,2.03,1.06,0,3.18-2.65,3.18-3.97,0-1.68-3.97-3.97-5.82-3.97h0Z"/>
  <path d="M422.87,148.1c0-16.41-12.44-19.67-19.15-19.67-11.12,0-19.68,9.26-19.68,20.12,0,11.91,8.29,18.7,19.76,18.7,10.85,0,19.06-8.3,19.06-19.15h.01ZM390.22,145.45c0-7.5,3.53-15.09,12.18-15.09,10.5,0,14.29,9.97,14.29,19.06,0,10.94-4.68,15.97-12.09,15.97-10.32,0-14.38-11.29-14.38-19.94h0Z"/>
  <path d="M483.23,130.45c0-.8-.71-1.06-1.41-1.06-1.5,0-3,.35-4.5.35-1.68,0-3.44-.18-5.12-.35-.44,0-1.85.18-1.85,1.15,0,1.68,5.12,1.15,5.12,4.59,0,1.23-.09,2.65-.71,4.23l-7.77,19.32-6.17-18.35c-1.15-3.44-1.76-5.21-1.76-6.53,0-2.03,3.18-2.03,3.18-3.18s-1.41-1.24-2.21-1.24c-1.85,0-3.79.35-5.65.35s-3.79-.35-5.65-.35c-.71,0-1.68.35-1.68,1.24,0,1.15,3.7.88,4.59,3.26l2.91,7.24-8.38,17.56-6.35-18.53c-.97-2.82-1.5-4.41-1.5-6.18,0-2.38,3-2.29,3-3.44,0-.53-.18-1.15-.79-1.15-3,0-5.21.35-7.32.35s-3.44-.35-5.56-.35c-.53,0-1.06.27-1.06.88,0,1.85,2.74-1.5,5.74,7.06l8.12,23.2c1.41,3.97,2.03,6.71,3.35,6.71,1.85,0,2.56-2.91,3.27-4.41l8.56-18.35,6.53,18.18c.79,2.29,1.06,4.59,2.74,4.59,1.59,0,2.65-3.88,3.18-5.12l11.65-27.7c1.24-3,3.53-2.65,3.53-3.97h-.03Z"/>
  <path d="M574.94,164.65c0-.15-.08-.62-.62-.62s-1.31.39-2.86.39c-3.47,0-10.73-7.49-13.66-9.8,2.47-4.4,3.09-9.34,3.63-14.21.39-3.4,3.32-2.55,3.32-3.78,0-.77-.39-.93-1.08-.93-2.63,0-3.94.31-4.94.31-1.16,0-3.86-.31-6.72-.31-.62,0-1.77-.15-1.77.7,0,2.47,7.26-.62,7.26,8.41,0,3.24-.31,6.02-2.24,8.18-16.68-15.44-28.1-27.64-28.1-32.81,0-3.7,2.86-6.25,6.41-6.25,4.71,0,8.72,4.09,10.57,8.1.23.46.46,1.39,1.16,1.39.31,0,.77-.23.77-.62l-.23-7.33c0-.7.15-2.16-.92-2.16-.7,0-1.01.7-1.39.7s-3.32-2.08-8.26-2.08c-6.25,0-12.51,3.47-12.51,10.5,0,3.24,1.54,6.33,3.55,8.8-8.26,1.77-12.35,8.1-12.35,16.37,0,12.04,9.96,19.53,21.31,19.53,7.57,0,13.43-2.62,18.99-7.8,4.25,3.4,8.49,7.8,14.28,7.8,2.55,0,6.41-1.16,6.41-2.47h-.01ZM537.88,162.57c-9.96,0-19.76-8.65-19.76-18.91,0-4.48,3.55-10.5,8.41-10.5,2.78,0,8.65,10.34,25.17,24.47-3.78,3.24-8.88,4.94-13.82,4.94h0Z"/>
  <path d="M655.11,150.48c-.53,0-1.06.53-1.23,1.15-1.32,4.06-9.97,12.88-23.82,12.88-16.94,0-25.76-15.35-25.76-30.7,0-16.41,8.3-27.88,25.5-27.88,11.38,0,17.65,5.74,23.12,15.18.35.62.97,2.91,2.03,2.91,1.5,0,.71-2.91.53-7.59-.27-5.74-.27-7.15-1.24-7.15-.88,0-1.41.88-2.12.88-2.56,0-7.15-6.79-23.73-6.79-18.62,0-31.77,14.91-31.77,33.18s12.97,30.7,31.06,30.7c19.85,0,26.12-6.62,26.21-6.97l2.03-8.82c.09-.44-.35-.97-.8-.97h-.01Z"/>
  <path d="M695.62,163.8c-.35,0-1.15.18-1.5.18-4.59,0-3.8-5.21-3.8-8.21v-18.26c0-7.5-8.47-9.09-13.94-9.09-9.79-.27-14.74,5.91-14.82,9.97,0,1.59,2.65,2.91,4.15,2.91,1.68,0,1.94-.71,1.94-1.68s-.53-2.29-.53-3.62c0-4.85,3.44-5.29,7.68-5.29,5.47,0,9.09,3.09,9.09,7.68v6.79c-20.65,3.44-22.15,9-22.15,13.68,0,6.26,3.79,8.38,9.53,8.38,4.94,0,9.79-1.94,13.5-5.12,1.15,2.91,3.44,4.5,6.88,4.5,1.23,0,5.12-.35,5.12-2.21,0-.62-.71-.62-1.15-.62h0ZM683.88,157.54c0,4.68-6,7.15-9.18,7.15-4.68,0-7.24-1.94-7.24-6.97,0-7.77,10.76-9.18,16.41-10.41v10.24h.01Z"/>
  <path d="M738.68,159.48v-14.56c0-6.71-2.56-16.5-14.38-16.5-8.56,0-12.97,7.59-12.79,6.53v-5.82c0-.88-.53-1.41-1.06-1.41-2.03,0-3.79,2.82-11.12,4.41-.44.09-.79.44-.79.97,0,1.85,6.53-.44,6.53,4.85v21.88c0,5.73-5.21,3.97-5.21,5.73,0,.88.44,1.06,1.59,1.06,1.06,0,2.82-.35,7.5-.35,5.12,0,6.88.35,8.38.35,1.32,0,1.94-.18,1.94-1.23,0-2.38-7.77.18-7.77-5.91v-20.29c-.09-1.41,3-6.88,10.41-6.88s10.32,6.62,10.32,11.03v16.5c0,5.73-3.79,3.97-3.79,5.73,0,.88.44,1.06,1.59,1.06s3-.35,6.35-.35c4.32,0,6.53.35,7.68.35.88,0,1.5-.18,1.5-1.23,0-2.38-6.88.18-6.88-5.91h0Z"/>
  <path d="M783.07,157.71c-1.32,0-5.2,5.12-12.09,5.12-9.97,0-15.62-7.85-15.62-17.38,0-6.35,2.91-14.12,10.41-14.12,4.06,0,7.94,1.32,10.94,5.38.26.35,1.23,2.03,2.12,2.03.44,0,.71-.62.71-1.85,0-1.15.09-3.26-.09-5.21-.27-2.03-6.27-3.26-10.68-3.26-11.12,0-19.85,9.09-19.85,20.12,0,9.79,7.32,18.7,17.47,18.7,12.09,0,17.38-7.59,17.38-9,0-.27-.44-.53-.71-.53h.01Z"/>
  <path d="M821.54,158.24c-1.94,0-4.85,4.59-12.44,4.59-5.38,0-14.21-4.32-14.21-18.88h23.47c2.03,0,3,.09,3-1.5,0-3.53-4.76-14.03-15.62-14.03s-17.29,9.44-17.29,20.73c0,5.82,4.59,18.09,17.82,18.09,7.94,0,15.62-6.35,15.62-8.38,0-.27,0-.62-.35-.62ZM804.25,130.45c4.85,0,9.79,4.41,9.79,9.35,0,1.32-.53,1.76-1.76,1.76h-17.38c0-4.85,3.88-11.12,9.35-11.12h0Z"/>
  <path d="M847.93,128.42c-3.7,0-6.88,4.76-8.73,7.32h-.18v-6.62c0-.88-.53-1.41-1.06-1.41-2.03,0-3.79,2.82-10.59,4.41-.44.09-1.15.44-1.15.97,0,1.85,6.35-.44,6.35,4.85v22.77c0,3.62-4.5,3.26-4.5,5.12,0,.53.27.79.97.79.62,0,2.21-.35,8.12-.35,4.94,0,7.06.35,8.29.35.97,0,1.41-.18,1.41-.97,0-2.82-7.85,1.41-7.85-6.79v-19.32c0-1.15,2.12-5.21,5.73-5.21,3.18,0,4.15,2.03,5.82,2.03,1.06,0,3.17-2.65,3.17-3.97,0-1.68-3.97-3.97-5.82-3.97h.02Z"/>
  <g>
    <path class="cls-1" d="M0,263.43h5.85l11.49,16.66v-16.66h6.53v28.37h-5.85l-11.49-16.66v16.66H0v-28.37h0Z"/>
    <path class="cls-1" d="M40.07,263.43h6.75l10.13,28.37h-6.75l-1.8-5.41h-9.91l-1.8,5.41h-6.75l10.13-28.37ZM46.61,280.77l-3.16-9.45-3.16,9.45h6.31Z"/>
    <path class="cls-1" d="M58.31,263.43h6.75l6.31,19.59,6.31-19.59h6.75l-9.69,28.37h-6.75l-9.69-28.37h0Z"/>
    <path class="cls-1" d="M90.96,263.43h6.53v28.37h-6.53v-28.37Z"/>
    <path class="cls-1" d="M127.2,289.1c-.68.59-1.4,1.08-2.21,1.49-1.4.72-3.38,1.44-5.9,1.44-7.7,0-13.96-6.31-13.96-14.41s6.25-14.41,13.96-14.41c6.75,0,11.49,4.69,12.83,9.91l-6.75.46c-.72-2.02-2.7-4.05-6.07-4.05-4.1,0-7.43,3.42-7.43,8.11s3.33,8.11,7.43,8.11c3.64,0,5.59-2.02,6.31-3.83h-6.31v-5.41h13.74v15.3h-4.5l-1.12-2.7h-.01Z"/>
    <path class="cls-1" d="M148.59,263.43h6.75l10.13,28.37h-6.75l-1.8-5.41h-9.91l-1.8,5.41h-6.75l10.13-28.37ZM155.12,280.77l-3.16-9.45-3.16,9.45h6.31Z"/>
    <path class="cls-1" d="M175.6,269.74h-8.11v-6.31h22.74v6.31h-8.11v22.07h-6.53v-22.07h.01Z"/>
    <path class="cls-1" d="M197,263.43h6.53v28.37h-6.53v-28.37Z"/>
    <path class="cls-1" d="M212.52,263.43h5.85l11.49,16.66v-16.66h6.53v28.37h-5.85l-11.49-16.66v16.66h-6.53v-28.37Z"/>
    <path class="cls-1" d="M266.12,289.1c-.68.59-1.4,1.08-2.21,1.49-1.4.72-3.38,1.44-5.9,1.44-7.7,0-13.96-6.31-13.96-14.41s6.25-14.41,13.96-14.41c6.75,0,11.49,4.69,12.83,9.91l-6.75.46c-.72-2.02-2.7-4.05-6.07-4.05-4.1,0-7.43,3.42-7.43,8.11s3.33,8.11,7.43,8.11c3.64,0,5.59-2.02,6.31-3.83h-6.31v-5.41h13.74v15.3h-4.5l-1.12-2.7h-.01Z"/>
    <path class="cls-1" d="M301.46,263.43h6.75l10.13,28.37h-6.75l-1.8-5.41h-9.91l-1.8,5.41h-6.75l10.13-28.37ZM307.99,280.77l-3.16-9.45-3.16,9.45h6.31Z"/>
    <path class="cls-1" d="M324.42,263.43h6.53v22.07h12.83v6.31h-19.36v-28.37h0Z"/>
    <path class="cls-1" d="M350.54,263.43h6.53v22.07h12.83v6.31h-19.36v-28.37h0Z"/>
    <path class="cls-1" d="M416.29,281.89c-1.31,5.4-6.07,10.13-13.06,10.13-7.7,0-13.96-6.31-13.96-14.41s6.25-14.41,13.96-14.41c6.71,0,11.53,4.73,12.83,10.13l-6.75.46c-.72-2.26-2.7-4.28-6.07-4.28-4.1,0-7.43,3.42-7.43,8.11s3.33,8.11,7.43,8.11c3.6,0,5.63-1.98,6.31-4.28l6.75.46v-.03Z"/>
    <path class="cls-1" d="M430.23,263.43h6.75l10.13,28.37h-6.75l-1.8-5.41h-9.91l-1.8,5.41h-6.75l10.13-28.37h0ZM436.77,280.77l-3.16-9.45-3.16,9.45h6.31Z"/>
    <path class="cls-1" d="M453.21,263.43h5.85l11.49,16.66v-16.66h6.53v28.37h-5.85l-11.49-16.66v16.66h-6.53v-28.37Z"/>
    <path class="cls-1" d="M511.74,281.89c-1.31,5.4-6.07,10.13-13.06,10.13-7.7,0-13.96-6.31-13.96-14.41s6.25-14.41,13.96-14.41c6.71,0,11.53,4.73,12.83,10.13l-6.75.46c-.72-2.26-2.7-4.28-6.07-4.28-4.1,0-7.43,3.42-7.43,8.11s3.33,8.11,7.43,8.11c3.6,0,5.63-1.98,6.31-4.28l6.75.46v-.03Z"/>
    <path class="cls-1" d="M518.93,263.43h20.26v6.31h-13.74v4.5h12.61v6.31h-12.61v4.95h14.18v6.31h-20.72v-28.37h.01Z"/>
    <path class="cls-1" d="M547.76,263.43h11.49c5.9,0,9.91,4.1,9.91,9.01.04,6.35-5.35,8.55-5.41,8.55l6.31,10.81h-7.21l-5.18-9.45h-3.38v9.45h-6.53v-28.37ZM559.25,276.04c2.3,0,3.6-1.36,3.6-3.16s-1.31-3.16-3.6-3.16h-4.95v6.31h4.95Z"/>
    <path class="cls-1" d="M581.98,282.35c0,2.57,1.36,3.83,4.05,3.83,2.52,0,3.83-1.36,3.83-2.93,0-4.28-13.96-1.8-13.96-11.93,0-4.28,3.83-8.11,10.13-8.11s9.91,3.83,9.91,9.01l-6.31.46c0-2.3-1.31-3.6-3.6-3.6-2.02,0-3.38,1.31-3.38,2.7,0,4.05,13.96,1.58,13.96,11.93,0,4.5-3.83,8.33-10.59,8.33s-10.35-3.83-10.35-9.23l6.31-.46h-.01Z"/>
    <path class="cls-1" d="M624.08,269.74h-8.11v-6.31h22.74v6.31h-8.11v22.07h-6.53v-22.07h.01Z"/>
    <path class="cls-1" d="M643.21,277.62c0-8.11,6.25-14.41,13.96-14.41s13.96,6.31,13.96,14.41-6.27,14.41-13.96,14.41-13.96-6.31-13.96-14.41ZM664.61,277.62c0-4.69-3.33-8.11-7.43-8.11s-7.43,3.42-7.43,8.11,3.33,8.11,7.43,8.11,7.43-3.42,7.43-8.11Z"/>
    <path class="cls-1" d="M699.51,289.1c-.68.59-1.4,1.08-2.21,1.49-1.4.72-3.38,1.44-5.9,1.44-7.7,0-13.96-6.31-13.96-14.41s6.25-14.41,13.96-14.41c6.75,0,11.49,4.69,12.83,9.91l-6.75.46c-.72-2.02-2.7-4.05-6.07-4.05-4.1,0-7.43,3.42-7.43,8.11s3.33,8.11,7.43,8.11c3.64,0,5.59-2.02,6.31-3.83h-6.31v-5.41h13.74v15.3h-4.5l-1.12-2.7h-.01Z"/>
    <path class="cls-1" d="M713.69,263.43h20.26v6.31h-13.74v4.5h12.61v6.31h-12.61v4.95h14.18v6.31h-20.72v-28.37h.01Z"/>
    <path class="cls-1" d="M748.35,269.74h-8.11v-6.31h22.74v6.31h-8.11v22.07h-6.53v-22.07h.01Z"/>
    <path class="cls-1" d="M769.75,263.43h6.53v10.81h10.81v-10.81h6.53v28.37h-6.53v-11.26h-10.81v11.26h-6.53v-28.37Z"/>
    <path class="cls-1" d="M802.61,263.43h20.26v6.31h-13.74v4.5h12.61v6.31h-12.61v4.95h14.18v6.31h-20.72v-28.37h.01Z"/>
    <path class="cls-1" d="M831.44,263.43h11.49c5.9,0,9.91,4.1,9.91,9.01.04,6.35-5.35,8.55-5.41,8.55l6.31,10.81h-7.21l-5.18-9.45h-3.38v9.45h-6.53v-28.37ZM842.91,276.04c2.3,0,3.6-1.36,3.6-3.16s-1.31-3.16-3.6-3.16h-4.95v6.31h4.95Z"/>
  </g>
</svg>