<?xml version="1.0" encoding="UTF-8"?>
<svg id="Layer_1" xmlns="http://www.w3.org/2000/svg" version="1.1" viewBox="0 0 630.9 555.2">
  <!-- Generator: Adobe Illustrator 30.1.0, SVG Export Plug-In . SVG Version: 2.1.1 Build 136)  -->
  <defs>
    <style>
      .st0 {
        fill: #588157;
      }
    </style>
  </defs>
  <path d="M173.6,415.1c0-.2-.1-.8-.8-.8s-1.7.5-3.7.5c-4.5,0-14-9.8-17.8-12.8,3.2-5.7,4-12.2,4.7-18.5.5-4.4,4.3-3.3,4.3-4.9s-.5-1.2-1.4-1.2c-3.4,0-5.1.4-6.4.4s-5-.4-8.8-.4-2.3-.2-2.3.9c0,3.2,9.5-.8,9.5,11s-.4,7.9-2.9,10.7c-21.8-20.2-36.7-36.1-36.7-42.8s3.7-8.2,8.4-8.2,11.4,5.3,13.8,10.6c.3.6.6,1.8,1.5,1.8s1-.3,1-.8l-.3-9.6c0-.9.2-2.8-1.2-2.8s-1.3.9-1.8.9-4.3-2.7-10.8-2.7-16.3,4.5-16.3,13.7,2,8.3,4.6,11.5c-10.8,2.3-16.1,10.6-16.1,21.4,0,15.7,13,25.5,27.8,25.5s17.5-3.4,24.8-10.2c5.5,4.4,11.1,10.2,18.6,10.2s8.4-1.5,8.4-3.2h0ZM125.3,412.4c-13,0-25.8-11.3-25.8-24.7s4.6-13.7,11-13.7,11.3,13.5,32.9,32c-4.9,4.2-11.6,6.5-18,6.5h0Z"/>
  <path d="M278.3,396.6c-.7,0-1.4.7-1.6,1.5-1.7,5.3-13,16.8-31.1,16.8s-33.6-20-33.6-40.1,10.8-36.4,33.3-36.4,23,7.5,30.2,19.8c.5.8,1.3,3.8,2.6,3.8,2,0,.9-3.8.7-9.9-.3-7.5-.3-9.3-1.6-9.3s-1.8,1.1-2.8,1.1c-3.3,0-9.3-8.9-31-8.9s-41.5,19.5-41.5,43.3,16.9,40.1,40.6,40.1,34.1-8.6,34.2-9.1l2.6-11.5c.1-.6-.5-1.3-1-1.3h0Z"/>
  <path d="M331.2,414c-.5,0-1.5.2-2,.2-6,0-5-6.8-5-10.7v-23.9c0-9.8-11.1-11.9-18.2-11.9-12.8-.3-19.2,7.7-19.4,13,0,2.1,3.5,3.8,5.4,3.8s2.5-.9,2.5-2.2-.7-3-.7-4.7c0-6.3,4.5-6.9,10-6.9s11.9,4,11.9,10v8.9c-27,4.5-28.9,11.8-28.9,17.9s5,10.9,12.4,10.9,12.8-2.5,17.6-6.7c1.5,3.8,4.5,5.9,9,5.9s6.7-.5,6.7-2.9-.9-.8-1.5-.8h0ZM315.9,405.8c0,6.1-7.8,9.3-12,9.3-6.1,0-9.5-2.5-9.5-9.1,0-10.1,14-12,21.4-13.6v13.4h0Z"/>
  <path d="M396.4,416c0-3.1-9,.2-9-7.7v-19c0-8.8-3.3-21.5-18.8-21.5s-16.9,9.9-16.7,8.5v-7.6c0-1.1-.7-1.8-1.4-1.8-2.6,0-5,3.7-14.5,5.8-.6.1-1,.6-1,1.3,0,2.4,8.5-.6,8.5,6.3v28.6c0,7.5-6.8,5.2-6.8,7.5s.6,1.4,2.1,1.4,3.7-.5,9.8-.5,9,.5,10.9.5,2.5-.2,2.5-1.6c0-3.1-10.1.2-10.1-7.7v-26.5c-.1-1.8,3.9-9,13.6-9s13.5,8.6,13.5,14.4v21.5c0,7.5-5,5.2-5,7.5s.6,1.4,2.1,1.4,3.9-.5,8.3-.5,8.5.5,10,.5,2-.2,2-1.6h0Z"/>
  <path d="M422.8,371.6c5.3,0,10.4,1.7,14.3,7,.3.5,1.6,2.6,2.8,2.6s.9-.8.9-2.4.1-4.3-.1-6.8c-.4-2.6-8.2-4.3-13.9-4.3-14.5,0-25.9,11.9-25.9,26.3s9.6,24.4,22.8,24.4,22.7-9.9,22.7-11.8-.6-.7-.9-.7c-1.7,0-6.8,6.7-15.8,6.7-13,0-20.4-10.2-20.4-22.7s3.8-18.4,13.6-18.4h0Z"/>
  <path d="M496.1,407.5c0-.4,0-.8-.5-.8-2.5,0-6.3,6-16.2,6s-18.5-5.6-18.5-24.6h30.6c2.6,0,3.9.1,3.9-2,0-4.6-6.2-18.3-20.4-18.3s-22.6,12.3-22.6,27.1,6,23.6,23.3,23.6,20.4-8.3,20.4-10.9h0ZM473,370.4c6.3,0,12.8,5.8,12.8,12.2s-.7,2.3-2.3,2.3h-22.7c0-6.3,5.1-14.5,12.2-14.5h0Z"/>
  <path d="M518.4,407.5v-25.2c0-1.5,2.8-6.8,7.5-6.8s5.4,2.6,7.6,2.6,4.1-3.5,4.1-5.2-5.2-5.2-7.6-5.2c-4.8,0-9,6.2-11.4,9.6h-.2v-8.6c0-1.1-.7-1.8-1.4-1.8-2.7,0-5,3.7-13.8,5.8-.6.1-1.5.6-1.5,1.3,0,2.4,8.3-.6,8.3,6.3v29.7c0,4.7-5.9,4.3-5.9,6.7s.4,1,1.3,1,2.9-.5,10.6-.5,9.2.5,10.8.5,1.8-.2,1.8-1.3c0-3.7-10.2,1.8-10.2-8.9h0Z"/>
  <g>
    <path d="M97,456.2c-.9,0-2.9,0-4.6.1-1.4,0-2.6,0-3.1,0-.7,0-1.5,0-2.6,0-2.3,0-5.8-.2-12.7-.2s-2.4,0-2.4,1.2,1.2,1.2,1.8,1.4h.3c2.3.4,2.4,2.1,2.4,4.9v24.8c0,3.6-1.4,4.1-2.5,4.5-.6.2-1.4.5-1.4,1.4s.3,1,1.1,1,.9,0,1.5,0c1,0,2.4-.2,4.1-.2,3.9,0,5.1.2,5.5.2.2,0,.3,0,.4,0,1.4,0,1.8-.7,1.8-1.3,0-.9-.9-1.1-1.7-1.2-1.5-.3-3.3-.7-3.3-3.7v-10.9c0-.1,0-.3,0-.4,0-.2,0-.6,0-.7,0,0,.1,0,.4,0h8c2.3,0,2.6,1.4,2.9,2.8.2.9.4,2,1.5,2s1.2-.3,1.2-1.3,0-1.5,0-2.2c0-.7,0-1.4,0-2.1s0-1.7,0-2.6c0-.9,0-1.9,0-2.9s-.5-1.6-1.2-1.6-1.1.8-1.3,1.5c-.4,1.3-.8,2.8-4.2,2.8h-5.8c-.7,0-1.3,0-1.4,0,0-.1,0-.6,0-1v-10.5c0-1.2,0-2,.3-2.3.3-.3,1.5-.3,3.4-.3h1.7c2.2,0,6.8-.1,7.8,1.3.3.4.3,1.1.4,1.8,0,1,.1,2.3,1.4,2.3s1.6-1.2,1.6-7-.6-1.8-1.1-1.8h0Z"/>
    <path d="M134.2,455.8c-11.6,0-20.3,8.6-20.3,19.9s7.8,20.2,19.4,20.2,20.9-8.2,20.9-20.5-8.6-19.6-20-19.6ZM135.6,493.1c-8.1,0-16.6-6.7-16.6-19s4.3-15.4,13.7-15.4,16.6,9.5,16.6,18.8-5.6,15.7-13.6,15.7h0Z"/>
    <path d="M209.3,456.2c-.5,0-1,0-1.5.1-1.5.2-3,0-4.6,0-1.1,0-2.1-.1-3.2-.1s-1.1.5-1.1,1.1c0,1.2,1.1,1.5,2.1,1.7,1.4.3,2.9.6,2.9,3.6v17.5c0,8.3-4,12.5-11.9,12.5s-12.3-4.5-12.3-12v-19.3c0-2,1-2.2,2-2.5.7-.2,1.6-.4,1.6-1.4s-.1-.5-.3-.7c-.4-.4-1-.4-1.7-.4s-1.9,0-2.9.1c-1.6.1-3.2.1-4.7,0-.7,0-1.4-.1-2.1-.1s-1.8.2-1.8,1.1,1.2,1.5,2.1,1.7c1.4.3,2.2.6,2.2,1.9v18.1c0,7.2,1.8,16.8,17.4,16.8s8.9-1.4,11.6-4c4.1-4.1,4-10.2,4-12.2v-17c0-2.8,1.1-3.4,1.9-3.8.6-.3,1.2-.6,1.2-1.5s-.8-1.2-1.3-1.2h0Z"/>
    <path d="M265.4,456.2c-.6,0-1.4,0-2.3,0-1,0-2.2.1-3.1.1s-1.7,0-2.5-.1c-.8,0-1.6-.1-2.4-.1s-1.2.5-1.2,1.1c0,1,1,1.3,2,1.5,1.8.5,4,1,4,5.2v21.9l-25.5-28.4c0,0-.1-.2-.2-.3-.4-.5-.9-1.2-1.6-1.2s-.9,0-1.3.1c-.8.1-1.6.1-2.4,0-.4,0-.9-.1-1.3-.1s-1.4.4-1.4,1.1,1,1.3,1.8,1.5c1.9.5,4.7,1.2,4.7,8.6v19.9c0,4.6-1.8,5.1-3.1,5.5-.7.2-1.6.5-1.6,1.5s.5,1.2,1.3,1.2.5,0,1,0c1.1,0,2.8-.2,4.1-.2s2.7,0,3.6.1c.7,0,1.3,0,1.8,0s1.2-.3,1.2-1.3-1-1.2-1.8-1.3c-1.4-.2-2.9-.5-2.9-3.1v-22c0-.2,0-.3,0-.4.1.1.2.2.4.4,0,0,.1.2.1.2l23.2,26.1c1.1,1.2,1.8,1.7,2.5,1.7,1,0,1-1.3,1-2.9v-31.2c0-2.1.9-2.5,1.8-2.9.6-.3,1.3-.6,1.3-1.5s-.5-1-1.1-1h0Z"/>
    <path d="M303.1,456.2c-2.5,0-4.6,0-6.6.1-2.6,0-5,.1-7.4,0-.8,0-1.6-.1-2.5-.1s-1.3.4-1.3,1.1.9,1.2,1.6,1.3c1.2.3,2.8.7,2.8,3.9v26.8c0,3-1.4,3.4-2.5,3.8-.6.2-1.4.4-1.4,1.2s.4,1.1,1.1,1.1,1.4,0,2.7-.1c1.5,0,3-.1,3.3-.1,1.4,0,2.7,0,4.1.1,1.4,0,2.8.1,4.1.1,14,0,21.4-7.4,21.4-21.5s-10.1-17.8-19.5-17.8h0ZM303.1,492.9c-2.3,0-6.2-.6-7.9-2.2-.2-.4-.2-2.3-.2-3v-26.2c0-2.2,0-2.8,4.8-2.8,10.7,0,17.6,7.2,17.6,18.2s-9,16-14.4,16h0Z"/>
    <path d="M377.9,493.1c-1-.2-2.2-.4-3-1.6-.9-1.3-1.5-2.9-2-4.4-.2-.6-.4-1.1-.6-1.6l-11.2-27.7c0,0,0-.2,0-.3-.3-.8-.7-2.1-1.6-2.1s-1.1.5-2.7,3.9c-.5,1-1.1,2.4-1.9,4l-12.9,27.5c-.7,1.6-1.8,2-2.6,2.2-.6.2-1.4.4-1.4,1.3s.4,1.2,1,1.2,1.4,0,2.2-.1c1.5-.1,2.9-.1,4.4,0,.8,0,1.5.1,2.3.1h.5c.4,0,.8,0,1.1-.4.2-.2.4-.6.4-1,0-1-1-1.2-1.7-1.3-1.1-.2-2.1-.4-2.1-2.2s.2-1.3.3-1.6l3.5-7.5c.4-.8.9-.8,2-.8h11.9c1.1,0,1.3.5,1.8,1.7l1.7,4.4c.1.3.3.7.5,1.1.5,1.3,1.2,3,1.2,3.8s-.5.9-1.5,1.2c-.8.3-1.7.6-1.7,1.6s.3,1.1,1.8,1.1,1.5,0,2.2-.1c1.8-.1,3.6,0,5.4,0,1.1,0,2.2.1,3.3.1s1.3,0,1.3-1-1-1.2-1.9-1.4h0ZM362.9,477.1h-10.7c-.1,0-.2,0-.2,0,0,0,0,0,0-.1l6-12.9,5.2,12.8c0,.1,0,.2.1.3,0,0-.2,0-.4,0h0Z"/>
    <path d="M424.4,458.3c0-1.6-.6-2.1-2.1-2.1s-.8,0-1.6,0c-2.2,0-6.9.2-14.2.2s-6.9,0-9.6-.1c-2.1,0-3.9,0-5.7,0s-1.5,1.7-1.5,2.4l-.6,5.5c0,.6.5,1.2,1.1,1.2,1,0,1.3-.9,1.4-1.4l.2-.6c.8-2.6,1-3,3.8-3h8.7c0,.1.2.5.1,1.6v28.3c0,1.5-1,1.9-2.5,2.5-.9.3-1.8.6-1.8,1.5s.4,1.3,1.2,1.3.2,0,.3,0c.6,0,2.2-.2,7-.2s1.6,0,2.3.1c.7,0,1.4.1,2,.1s.6-.2.8-.3c.3-.3.3-.7.3-.9,0-1.1-1-1.3-1.8-1.5-1.2-.3-2.5-.6-2.5-2.9v-28.2c0-.6,0-1.1,0-1.2.1,0,.6,0,1.1,0h8.2c2.9,0,3,1.1,3.1,2.3,0,.7.2,1.8,1.4,1.8s.7-.2.9-.4c.4-.4.3-1,.3-1.4l-.3-4.3h0Z"/>
    <path d="M454.2,492.8c-1.6-.4-2.7-.8-2.7-2.4v-28.9c0-2.1,1.2-2.5,2.3-2.8.7-.2,1.6-.4,1.6-1.3s-1-1.1-1.6-1.1c-.9,0-1.7,0-2.5.1-1.8.1-3.6.1-5.4,0-1,0-2-.1-3-.1s-1.1.7-1.1,1.2c0,.9.9,1.1,1.7,1.3,1.2.3,2.7.7,2.7,2.8v27.6c0,3-1.4,3.4-2.6,3.7-.7.2-1.6.4-1.6,1.4s.9,1.4,1.7,1.4.5,0,1,0c.8,0,2-.2,4.2-.2s2.6,0,3.8.1c.8,0,1.6,0,2.1,0s1.6,0,1.6-1.1-1.1-1.4-2.1-1.6h0Z"/>
    <path d="M494.2,455.8c-11.6,0-20.3,8.6-20.3,19.9s7.8,20.2,19.4,20.2,20.9-8.2,20.9-20.5-8.6-19.6-20-19.6h0ZM495.6,493.1c-8,0-16.6-6.7-16.6-19s4.3-15.4,13.6-15.4,16.6,9.5,16.6,18.8-5.6,15.7-13.6,15.7Z"/>
    <path d="M568.4,456.2c-.6,0-1.4,0-2.3,0-1,0-2.2.1-3.1.1s-1.7,0-2.5-.1c-.8,0-1.6-.1-2.4-.1s-1.2.5-1.2,1.1c0,1,1,1.3,2,1.5,1.8.5,4,1,4,5.2v21.9l-25.5-28.4c0,0-.1-.2-.2-.3-.4-.5-.9-1.2-1.6-1.2s-.9,0-1.3.1c-.8.1-1.6.1-2.4,0-.4,0-.9-.1-1.3-.1s-1.4.4-1.4,1.1,1,1.3,1.8,1.5c1.9.5,4.7,1.2,4.7,8.6v19.9c0,4.6-1.8,5.1-3.1,5.5-.7.2-1.6.5-1.6,1.5s.5,1.2,1.3,1.2.5,0,1,0c1,0,2.8-.2,4.1-.2s2.7,0,3.6.1c.7,0,1.3,0,1.8,0s1.2-.3,1.2-1.3-1-1.2-1.8-1.3c-1.4-.2-2.9-.5-2.9-3.1v-22c0-.2,0-.3,0-.4,0,.1.2.2.4.4,0,0,.1.2.1.2l23.2,26.1c1.1,1.2,1.8,1.7,2.5,1.7,1,0,1-1.3,1-2.9v-31.2c0-2.1.9-2.5,1.8-2.9.6-.3,1.3-.6,1.3-1.5s-.5-1-1.1-1h0Z"/>
  </g>
  <g>
    <path d="M45.3,262.6c0-.8,10.8-4.6,10.8-16.4s-5.1-19.6-25.3-19.6-13.8.5-18.4.5-6.9-.5-9.2-.5S0,226.5,0,228.2s10.3,1.1,10.3,9.9v56.7c0,9-4,9.6-5.3,9.9-2.1.7-3.5,1-3.5,2.2s2.3,1.3,2.9,1.3c5.3,0,10.7-.5,16-.5s10.8.5,15,.5c22.5,0,28-16.8,28-24.4,0-19.1-18.1-19.5-18.1-21.2h0ZM26,230.4c11.6,0,22.1,7,22.1,19.5s-.9,12.4-19.8,12.4-9-.6-9-4.3v-19c0-6.7-.6-8.6,6.7-8.6ZM35.1,305.1c-16.4,0-15.8-2.4-15.8-10.7v-25.8c0-1-.6-2.6,8.3-2.6,26.5,0,27,14.8,27,22.1s-4.2,17-19.5,17h0Z"/>
    <path d="M95.3,309c14.2,0,24.9-10.8,24.9-25,0-21.4-16.2-25.7-25-25.7-14.5,0-25.7,12.1-25.7,26.3s10.8,24.4,25.8,24.4h0ZM93.4,260.8c13.7,0,18.7,13,18.7,24.9s-6.1,20.9-15.8,20.9-18.8-14.8-18.8-26,4.6-19.7,15.9-19.7h0Z"/>
    <path d="M133.8,270.8v28.6c0,7.5-6.8,5.2-6.8,7.5s.6,1.4,2.1,1.4,3.7-.5,9.8-.5,9,.5,10.9.5,2.5-.2,2.5-1.6c0-3.1-10.1.2-10.1-7.7v-26.5c-.1-1.8,3.9-9,13.6-9s13.5,8.6,13.5,14.4v21.5c0,7.5-4.9,5.2-4.9,7.5s.6,1.4,2.1,1.4,3.9-.5,8.3-.5,8.5.5,10,.5,2-.2,2-1.6c0-3.1-9,.2-9-7.7v-19c0-8.8-3.3-21.5-18.8-21.5s-16.9,9.9-16.7,8.5v-7.6c0-1.1-.7-1.8-1.4-1.8-2.6,0-4.9,3.7-14.5,5.8-.6.1-1,.6-1,1.3,0,2.4,8.5-.6,8.5,6.3h0Z"/>
    <path d="M214.8,309c10.4,0,20.4-8.3,20.4-10.9s0-.8-.5-.8c-2.5,0-6.3,6-16.2,6s-18.6-5.6-18.6-24.6h30.6c2.6,0,3.9.1,3.9-2,0-4.6-6.2-18.3-20.4-18.3s-22.6,12.3-22.6,27.1,6,23.6,23.3,23.6h0ZM212.1,261c6.3,0,12.8,5.8,12.8,12.2s-.7,2.3-2.3,2.3h-22.7c0-6.3,5.1-14.5,12.2-14.5h0Z"/>
    <path d="M295.2,306.9c0-4.1-10.9.9-10.4-14.4l1.4-40.4c.1-1.1.5-1.7.8-1.7s1,.4,1.4,1.3l24.5,51.4c.4.8,1.1,3.3,2.3,3.3s3-4.7,3.6-5.8l23.9-48.6c1.1-2.4,2.2-3.5,3-3.5s1.3,1.6,1.3,4.5l1.1,44.7c.1,8.5-7.1,6-7.1,9.5s.2,1,1.3,1c2.9,0,6.6-.5,10.1-.5s8.6.5,10.8.5,2.8,0,2.8-1.1c0-4-8.5.2-9.1-9.5l-1.6-57.1c-.5-13.7,8.8-8.8,8.8-12.4s-.5-1.4-1.1-1.4c-1.8,0-2.9.5-5.5.5s-4.3-.5-5.4-.5c-1.4-.1-2.3,2.6-3,3.9l-27.4,55.1c-1.8,3.8-3,6.2-3.6,6.2-.8,0-1.3-1-2.5-3.5l-27.4-58.5c-.6-1.3-.8-3.2-2.4-3.2s-4.1.5-6.2.5-4.3-.5-6.3-.5-2,.2-2,1.3c0,3.9,10.9-2.5,10.9,24.5s-1.4,24.4-2.8,43.2c-.8,12-8.2,7.3-8.2,11.2s.4,1.4,1.1,1.4c2.1,0,4-.5,10-.5s8.6.5,10.1.5,2.9-.1,2.9-1.3h0Z"/>
    <path d="M380,275.1c2.2,0,2.5-.9,2.5-2.2s-.7-3-.7-4.7c0-6.3,4.5-6.9,10-6.9s11.9,4,11.9,10v8.9c-27,4.5-28.9,11.8-28.9,17.9s5,10.9,12.4,10.9,12.8-2.5,17.6-6.7c1.5,3.8,4.5,5.9,9,5.9s6.7-.5,6.7-2.9-.9-.8-1.5-.8-1.5.2-2,.2c-6,0-5-6.8-5-10.7v-23.9c0-9.8-11.1-11.9-18.2-11.9-12.8-.4-19.2,7.7-19.4,13,0,2.1,3.5,3.8,5.4,3.8h0ZM403.7,296.3c0,6.1-7.8,9.3-12,9.3-6.1,0-9.5-2.5-9.5-9.1,0-10.1,14-12,21.4-13.6v13.4h0Z"/>
    <path d="M431.5,270.8v29.7c0,4.7-5.9,4.3-5.9,6.7s.4,1,1.3,1,2.9-.5,10.6-.5,9.2.5,10.8.5,1.8-.2,1.8-1.3c0-3.7-10.2,1.8-10.2-8.9v-25.2c0-1.5,2.8-6.8,7.5-6.8s5.4,2.6,7.6,2.6,4.1-3.5,4.1-5.2-5.2-5.2-7.6-5.2c-4.8,0-9,6.2-11.4,9.6h-.2v-8.6c0-1.1-.7-1.8-1.4-1.8-2.6,0-5,3.7-13.8,5.8-.6.1-1.5.6-1.5,1.3,0,2.4,8.3-.6,8.3,6.3h0Z"/>
    <path d="M469.8,270.8v29.7c0,4.7-5.9,4.3-5.9,6.7s.4,1,1.3,1,2.9-.5,10.6-.5,9.2.5,10.8.5,1.8-.2,1.8-1.3c0-3.7-10.2,1.8-10.2-8.9v-25.2c0-1.5,2.8-6.8,7.5-6.8s5.4,2.6,7.6,2.6,4.1-3.5,4.1-5.2-5.2-5.2-7.6-5.2c-4.8,0-9,6.2-11.4,9.6h-.2v-8.6c0-1.1-.7-1.8-1.4-1.8-2.6,0-5,3.7-13.8,5.8-.6.1-1.5.6-1.5,1.3,0,2.4,8.3-.6,8.3,6.3h0Z"/>
    <path d="M527.2,309c14.2,0,24.9-10.8,24.9-25,0-21.4-16.2-25.7-25-25.7-14.5,0-25.7,12.1-25.7,26.3s10.8,24.4,25.8,24.4ZM525.4,260.8c13.7,0,18.7,13,18.7,24.9s-6.1,20.9-15.8,20.9-18.8-14.8-18.8-26,4.6-19.7,15.9-19.7h0Z"/>
    <path d="M629.1,259.6c-2,0-3.9.5-5.9.5s-4.5-.2-6.7-.5c-.6,0-2.4.2-2.4,1.5,0,2.2,6.7,1.5,6.7,6s-.1,3.5-.9,5.5l-10.1,25.2-8.1-24c-1.5-4.5-2.3-6.8-2.3-8.5,0-2.6,4.2-2.6,4.2-4.1s-1.8-1.6-2.9-1.6c-2.4,0-5,.5-7.4.5s-5-.5-7.4-.5-2.2.5-2.2,1.6,4.8,1.1,6,4.3l3.8,9.5-10.9,22.9-8.3-24.2c-1.3-3.7-2-5.8-2-8.1s3.9-3,3.9-4.5-.2-1.5-1-1.5c-3.9,0-6.8.5-9.6.5s-4.5-.5-7.3-.5-1.4.3-1.4,1.1c0,2.4,3.6-2,7.5,9.2l10.6,30.3c1.8,5.2,2.7,8.8,4.4,8.8s3.3-3.8,4.3-5.8l11.2-24,8.5,23.7c1,3,1.4,6,3.6,6s3.5-5.1,4.2-6.7l15.2-36.2c1.6-3.9,4.6-3.5,4.6-5.2s-.9-1.4-1.8-1.4h0Z"/>
    <path class="st0" d="M251,307.5c4.7-17,3.8-43.8,3.2-61.5-.2-6.2-.9-29.2-2.5-33.5-1.4-3.7-5.9-9.3-7.9-13.5-1.6-3.2-2.9-7.8-4.4-11.1-1.4-2.9-8-15.5-11-15.6-5.2-.1-3.7,7.3-5.2,11-.8,1.9-7.6,13.3-8.9,14.7-4.4,5.1-14.1,7.6-20.6,7.3-.6-2.4,1.5-3.7,2.1-5.7,3.3-11.3,3.6-20.9,16.8-26,4.1-1.6,5.9-.9,9.7-1.5.6-.1,5-1.7,3.5-2.8l-13.7-.9-1.3-3.1,1.5-1.2c-3,0-5.2-2.3-8-2.8-4.7-.7-8.6,2.5-13.1,1.1-.3,0-4.2-2.4-4.6-2.8-.5-.4-3.4-2.9-4-3.4-2.8-2.5-7.7-8.5-8.1-12.3-.5-4.3,1.9-10.5-.2-15.2,2.2-.7,2,1,2.8,1.4,1.8.9,5.9,2.1,7.1,3,1.1.8.8,2.2,1.4,2.8,1.2,1,5.7,1.4,7.3,2,5.5,2.1,12.5,10.7,13.2,16.3.3,1.8-1.4,2.8.5,4.6.5.5,7.7,3.9,9,4.4,4.7,1.9,11.2,2.8,15.3,4.8,5.1,2.4,10.1,14.5,12.8,19.6.3.6,1.3.8,1.6,1.5.5.9,5,14.5,6.5,13,2.8-8.5.2-16.8,0-25.3-.5-15.3,2.2-27.6-6.8-41.8-1.2-2-4-4.1-4.9-6.2-1-2.1-.9-4.7-1.8-7-3.3-8.6-11.1-15-20-17.4.6,4.2-.5,6.8-4.7,8.2-4.2,1.4-7-.9-10.6-1-2.5,0-9.6,1.4-11.8.8-.5,0-.4-1.3-1-1.4-3.5-.7-7.1-1.2-10.6-1.5,5.3-8.7,20.9-15.9,30.9-14.6,7.8,1,6.4,8.8,14.7,8.8-4.4-5.1-8.8-11-16-11.7-11.8-1.2-14.9,2.7-25,4.8-11.6,2.4-18.6,1.5-29.9-.7-.5,0-5.9-1.1-4.4-2.6,3.3,0,3.9-3.1,5.6-4.4,9.4-7.5,22.3-7.5,33.8-7.2l6.7,7.8c7.4.6,14.9-.9,21.9,1.6-1.4-3.5-3.6-6.6-5-10.1-2.6-6.2-.5-3.9-5.1-9.2-1.5-1.7-2.1-6.6-1.6-8.8.4-1.6,6.4-12.3,7.6-13.5,3.1-3.3,8.2-4.5,11.3-6.9,3.4-2.5,5.3-6.9,6.7-10.3,1.1-2.6,5.9-9.6,1.9-10.3-.8-3.5,5.2,1.1,6,1.8,2.3,2.5,3.5,6.5,4,9.8,2.4,14.4,1.6,26.8.4,41.6-.2,2.3-2.9,11.2-1.4,12.7s1.4,0,2,.6c1.2.9.8,2.6,4.1,1.8,1.3-.3,0-5.3,4-7.2,4-1.9,11.9-.4,16.6-2.4l-11.7,13.8-6.4,1.6-3.1-3.7c-1.7,0-5.5,1.1-6.2,2.8-1.2,2.9-2,14.9-1.6,18.2.9,9,8.3,18.1,13.4,25.3,0-5.2,3.3-10.3,5-15.3.9-2.6-1.2-3.3,3-3.2l20.8-26.9c1.2-7.1,2.4-4.8,6.3-7.8,3.1-2.4,5.3-8.3,7.8-10.7.8-.8,2.5-.8,3-1.5,1.8-2.5-2.6-13.5-2.7-16.9-5.2.9-9.2,1-14.3-.2-5.5-1.4-10.1-6-15-8.6-3.5-1.9-8.2-3.4-12.3-5-1.3-.5-3.5,0-4.6-1.3,13.2-5,34.2-12.6,45.9-1.1,1.4,1.4,4.1,6.2,4.5,8.1.8,3.8-2.4,5.2-2.5,6.2,0,.7,4.5,10.3,3.9,12.9,2.3-4.3,7.2-11,7.2-15.8s-1.3-8.4-1.8-9c-.5-.8-4-1.9-5.4-3.9-1.7-2.6-2.8-8.9-2.7-12.1.7-13.1,12.2-18.3,23.6-21.7L330.5,0l-4.5,22.2c-2.5,1.4-2.2,4.5-3.7,6.6-2.6,3.9-10.1,6.8-11,11.4-1.2,5.8,4,13.6-.9,20h10.8c3.6-7.8,10.8-9.7,18.8-10.9,10-1.6,16.1,0,25.4,3.5.8.3,1.3-.4,1,1.2-6.6,5.4-7.3,13.9-16.9,16.5-4.7,1.2-16.7,2.6-20,.2-4.1,2.5-6.5-6.6-8.8-7.7-3.1-.4-9.8-1.1-12.1,1-2.1,1.9-3.3,9.1-5.7,12-2.2,2.7-6.5,5.5-9.2,8.6-8.7,9.9-20.9,28.3-28.1,39.8-.3.5-1.2.6-1.5,1.1-6.1,10.5-5.7,24.3-6,36.2l7.1-13.2c2.4-2.5,7.8-5.4,9.8-8,1.3-1.7,1.1-4.1,2-5,1.4-1.5,6.9-2.2,7.2-2.5.3-.4,0-3.2,2.5-5.3,5.3-4.4,12.8-.5,15.1-7.9-2.6-6.1-4.4-11.7-3-18.3,1.1-5.1,4.1-9.8,7.1-13.6,2.3-3.1,6.1-6,6-9.9l6.4,9.8.3,1.9c1.8-1.7,3.6-5.1,5.7-6.5.7-.5,8.8-3.3,9.2-3-1.9,4.4.4,9.6,0,14.3-.3,3.9-5.3,16.9-7.9,19.5-2,2-4.5,1.8-6.1,3.2-1.2,1-2,3.9-3.2,5.3-1.6,1.9-8.1,5.2-7.5,7.3,4.8,4.5,7.4-3.1,10.2-3.9,7.8-2.3,10,2.3,15.2,4.5,1.9.8,4.2.7,5.8,1.6,4.2,2.2,10.1,15.9,10.5,20.9-4.3-2.3-7.4-.6-11.5-.7-5.5-.2-19.6-6.4-22.7-10.8-1-1.5-2-2.9-3-4.4-.7-1-.5-2.8-1.3-3.3-.4-.3-6-1.6-6.2-1.4l1.7,3.5,5.4,2.4c-4.9,3.5-9.4,7.7-16,5.5-2.3-.8-3.2-3.8-5.2-4.4-.8-.3-7.8-.9-8.2-.7-.7.3-9.8,8.2-10.8,9.2-4,4.1-8.5,12.2-10.6,17.5s-2.7,9.8-3.2,15.2c-1.4,16.4-2.3,43.5-.1,59.5.3,2.3,1.8,2.5,2.1,4.2.4,2.3-1.3,8.9-1.3,11.9,0,12.6,1.6,25.4,0,38.1-.8,6.3-2.3,6.7-1.5,13.3M233.9,60.3c-1.3-2.6-1.7-5.9-2.9-8.5l-3.2,5.5,7.7,6.2c1.5-1.4-1.4-2.9-1.6-3.2h0ZM241.8,87v-10.6c0-.5-.9-4.7-1.1-5.5-.2-.6-1-3-1.9-2.9,2.3,3.9-2,8.7-2,11.4s2.7,5.9,3.2,6.8c.5.7,0,1.3,1.7,1h0s.1-.2.1-.2ZM236.1,84.5c-.6-1.1-.9-2.6-1.5-3.4-3.4-4.5-10-7.9-14.3-11.7-1.2-.2-4,3.4-4,4.6-.2,8.4,8.9,16,10.8,23.7,2.2.7,8.5,10.5,9.2,10.6.6,0,2.2-.6,2.5-1.4.3-.6,1.6-11.4,1.5-12.3,0-3.1-2.9-7.8-4.2-10.2h0ZM316.2,121.2c1.8-1.8,5.5-6.1,1.4-7.1-4,5.4-11.8,6.3-14.6,12.5,4.8.9,9.9-2.2,13.2-5.4h0Z"/>
  </g>
  <g>
    <path d="M0,533.4h4.5l8.8,12.7v-12.7h5v21.7h-4.5l-8.8-12.7v12.7H0v-21.7Z"/>
    <path d="M29.9,533.4h5.2l7.7,21.7h-5.2l-1.4-4.1h-7.6l-1.4,4.1h-5.1l7.7-21.7h0ZM34.9,546.7l-2.4-7.2-2.4,7.2h4.8,0Z"/>
    <path d="M43.1,533.4h5.2l4.8,15,4.8-15h5.2l-7.4,21.7h-5.2l-7.4-21.7h0Z"/>
    <path d="M67.3,533.4h5v21.7h-5v-21.7Z"/>
    <path d="M94.3,553c-.5.5-1.1.8-1.7,1.1-1.1.5-2.6,1.1-4.5,1.1-5.9,0-10.7-4.8-10.7-11s4.8-11,10.7-11,8.8,3.6,9.8,7.6l-5.2.3c-.6-1.5-2.1-3.1-4.6-3.1s-5.7,2.6-5.7,6.2,2.5,6.2,5.7,6.2,4.3-1.5,4.8-2.9h-4.8v-4.1h10.5v11.7h-3.4s-.9-2.1-.9-2.1Z"/>
    <path d="M110,533.4h5.2l7.7,21.7h-5.2l-1.4-4.1h-7.6l-1.4,4.1h-5.2l7.7-21.7h0ZM114.9,546.7l-2.4-7.2-2.4,7.2h4.8,0Z"/>
    <path d="M129.9,538.2h-6.2v-4.8h17.3v4.8h-6.2v16.8h-5v-16.8h0Z"/>
    <path d="M145.5,533.4h5v21.7h-5v-21.7Z"/>
    <path d="M156.7,533.4h4.5l8.8,12.7v-12.7h5v21.7h-4.5l-8.8-12.7v12.7h-5v-21.7Z"/>
    <path d="M196.9,553c-.5.5-1.1.8-1.7,1.1-1.1.5-2.6,1.1-4.5,1.1-5.9,0-10.6-4.8-10.6-11s4.8-11,10.6-11,8.8,3.6,9.8,7.6l-5.1.3c-.6-1.5-2.1-3.1-4.6-3.1s-5.7,2.6-5.7,6.2,2.5,6.2,5.7,6.2,4.3-1.5,4.8-2.9h-4.8v-4.1h10.5v11.7h-3.4l-.9-2.1Z"/>
    <path d="M222.5,533.4h5.1l7.7,21.7h-5.1l-1.4-4.1h-7.6l-1.4,4.1h-5.1l7.7-21.7h0ZM227.5,546.7l-2.4-7.2-2.4,7.2h4.8,0Z"/>
    <path d="M239.3,533.4h5v16.8h9.8v4.8h-14.8v-21.7h0Z"/>
    <path d="M258.6,533.4h5v16.8h9.8v4.8h-14.8v-21.7h0Z"/>
    <path d="M307.4,547.5c-1,4.1-4.6,7.7-10,7.7s-10.6-4.8-10.6-11,4.8-11,10.6-11,8.8,3.6,9.8,7.7l-5.1.3c-.5-1.7-2.1-3.3-4.6-3.3s-5.7,2.6-5.7,6.2,2.5,6.2,5.7,6.2,4.3-1.5,4.8-3.3l5.1.3Z"/>
    <path d="M317.3,533.4h5.1l7.7,21.7h-5.1l-1.4-4.1h-7.6l-1.4,4.1h-5.1l7.7-21.7h0ZM322.3,546.7l-2.4-7.2-2.4,7.2h4.8Z"/>
    <path d="M334.2,533.4h4.5l8.8,12.7v-12.7h5v21.7h-4.5l-8.8-12.7v12.7h-5v-21.7Z"/>
    <path d="M378.2,547.5c-1,4.1-4.6,7.7-10,7.7s-10.6-4.8-10.6-11,4.8-11,10.6-11,8.8,3.6,9.8,7.7l-5.1.3c-.5-1.7-2.1-3.3-4.6-3.3s-5.7,2.6-5.7,6.2,2.5,6.2,5.7,6.2,4.3-1.5,4.8-3.3l5.1.3Z"/>
    <path d="M383,533.4h15.5v4.8h-10.5v3.4h9.6v4.8h-9.6v3.8h10.8v4.8h-15.8v-21.7Z"/>
    <path d="M404.3,533.4h8.8c4.5,0,7.6,3.1,7.6,6.9,0,4.8-4.1,6.5-4.1,6.5l4.8,8.2h-5.5l-4-7.2h-2.6v7.2h-5v-21.7ZM413,543c1.8,0,2.8-1,2.8-2.4s-1-2.4-2.8-2.4h-3.8v4.8h3.8Z"/>
    <path d="M429.7,547.9c0,2,1,2.9,3.1,2.9s2.9-1,2.9-2.2c0-3.3-10.6-1.4-10.6-9.1s2.9-6.2,7.7-6.2,7.6,2.9,7.6,6.9l-4.8.3c0-1.8-1-2.8-2.8-2.8s-2.6,1-2.6,2.1c0,3.1,10.6,1.2,10.6,9.1s-2.9,6.4-8.1,6.4-7.9-2.9-7.9-7l4.8-.3h0Z"/>
    <path d="M460.5,538.2h-6.2v-4.8h17.4v4.8h-6.2v16.8h-5v-16.8h0Z"/>
    <path d="M474.4,544.2c0-6.2,4.8-11,10.6-11s10.6,4.8,10.6,11-4.8,11-10.6,11-10.6-4.8-10.6-11ZM490.7,544.2c0-3.6-2.5-6.2-5.7-6.2s-5.7,2.6-5.7,6.2,2.5,6.2,5.7,6.2,5.7-2.6,5.7-6.2Z"/>
    <path d="M516.6,553c-.5.5-1.1.8-1.7,1.1-1.1.5-2.6,1.1-4.5,1.1-5.9,0-10.6-4.8-10.6-11s4.8-11,10.6-11,8.8,3.6,9.8,7.6l-5.2.3c-.5-1.5-2.1-3.1-4.6-3.1s-5.7,2.6-5.7,6.2,2.5,6.2,5.7,6.2,4.3-1.5,4.8-2.9h-4.8v-4.1h10.5v11.7h-3.4l-.9-2.1h0Z"/>
    <path d="M526.8,533.4h15.5v4.8h-10.5v3.4h9.6v4.8h-9.6v3.8h10.8v4.8h-15.8v-21.7h0Z"/>
    <path d="M552.5,538.2h-6.2v-4.8h17.3v4.8h-6.2v16.8h-5v-16.8h0Z"/>
    <path d="M568.2,533.4h5v8.2h8.2v-8.2h5v21.7h-5v-8.6h-8.2v8.6h-5v-21.7Z"/>
    <path d="M592.6,533.4h15.5v4.8h-10.5v3.4h9.6v4.8h-9.6v3.8h10.8v4.8h-15.8v-21.7h0Z"/>
    <path d="M613.9,533.4h8.8c4.5,0,7.6,3.1,7.6,6.9,0,4.8-4.1,6.5-4.1,6.5l4.8,8.2h-5.5l-4-7.2h-2.6v7.2h-5v-21.7ZM622.7,543c1.8,0,2.8-1,2.8-2.4s-1-2.4-2.8-2.4h-3.8v4.8h3.8Z"/>
  </g>
</svg>